<svg id="Layer_1" data-name="Layer 1" xmlns="http://www.w3.org/2000/svg" viewBox="0 0 203.59 152.31"><defs><style>.cls-1{fill:#bfbfbf;}</style></defs><g id="Layer_2" data-name="Layer 2"><g id="Layer_1-2" data-name="Layer 1-2"><path class="cls-1" d="M112.9,51.05c32.66-16.28,46.75,2.41,46.75,2.41s26.43,31.65-1.61,52.79-73.82,4.83-73.82,4.83-15-7.27-26.42,19.6C48.06,153.53,40,158.08,40,158.08-2,184.57-4.47,128.83-4.47,128.83s-26.39-7.6-28.13-26.94S1,74.88,10.53,72s11.25-7.63,11.25-7.63C36.78,7.43,73,13.06,73,13.06c18.89,3.63,17.45,36.49,17.45,36.49C92,64.77,112.9,51.05,112.9,51.05Z" transform="translate(32.66 -12.91)"/></g></g></svg>